<svg xmlns="http://www.w3.org/2000/svg" viewBox="0 0 17.06 12.4"><defs><style>.cls-1{fill:#fff;}</style></defs><g id="Capa_2" data-name="Capa 2"><g id="Capa_1-2" data-name="Capa 1"><path class="cls-1" d="M4.63,0H0V12.4H4.63a5.9,5.9,0,0,0,5.81-6.2A5.9,5.9,0,0,0,4.63,0Zm0,11.51H.93V.89h3.7c2.9,0,4.89,2.37,4.89,5.31S7.53,11.51,4.63,11.51Z"/><path class="cls-1" d="M14.84,7.93a2.23,2.23,0,1,0,2.22,2.22A2.23,2.23,0,0,0,14.84,7.93Zm0,3.49a1.27,1.27,0,1,1,1.25-1.27A1.26,1.26,0,0,1,14.84,11.42Z"/></g></g></svg>