<svg xmlns="http://www.w3.org/2000/svg" viewBox="0 0 132.3 16.56"><defs><style>.cls-1{fill:#fff;}</style></defs><g id="Capa_2" data-name="Capa 2"><g id="Capa_1-2" data-name="Capa 1"><path class="cls-1" d="M4.63.43H0V12.82H4.63a5.89,5.89,0,0,0,5.81-6.19A5.9,5.9,0,0,0,4.63.43Zm0,11.51H.93V1.31h3.7c2.9,0,4.89,2.38,4.89,5.32S7.53,11.94,4.63,11.94Z"/><path class="cls-1" d="M12.62,4v8.85h.88V4ZM13.06.43a.7.7,0,1,0,0,1.4.71.71,0,0,0,.71-.71A.71.71,0,0,0,13.06.43Z"/><path class="cls-1" d="M24.52,8.43a4.46,4.46,0,1,0-8.91,0A4.46,4.46,0,0,0,20.24,13a4.33,4.33,0,0,0,3.84-2l-.77-.47a3.35,3.35,0,0,1-3,1.62,3.59,3.59,0,0,1-3.73-3.32h8C24.5,8.72,24.52,8.57,24.52,8.43Zm-8-.44a3.56,3.56,0,0,1,3.64-3.37A3.44,3.44,0,0,1,23.61,8Z"/><path class="cls-1" d="M34.4,4V6a4.18,4.18,0,0,0-3.79-2.25,4.56,4.56,0,0,0-4.56,4.62A4.55,4.55,0,0,0,30.61,13a4.18,4.18,0,0,0,3.79-2.25V12.4a3.16,3.16,0,0,1-3.51,3.31C29,15.71,28,14.93,27.51,14l-.77.44c.64,1.3,2.1,2.13,4.15,2.13a4.06,4.06,0,0,0,4.39-4.16V4Zm-3.74,8.2a3.72,3.72,0,0,1-3.73-3.78,3.74,3.74,0,1,1,7.47,0A3.72,3.72,0,0,1,30.66,12.17Z"/><path class="cls-1" d="M42,3.77a4.58,4.58,0,0,0-4.63,4.62,4.62,4.62,0,1,0,9.24,0A4.58,4.58,0,0,0,42,3.77Zm0,8.4a3.72,3.72,0,0,1-3.73-3.78,3.72,3.72,0,1,1,7.44,0A3.7,3.7,0,0,1,42,12.17Z"/><path class="cls-1" d="M52,10.09V.43H49.23V12.82h7.21V10.09Z"/><path class="cls-1" d="M64.58,4V4.8A3.3,3.3,0,0,0,62,3.72a4.44,4.44,0,0,0-4.21,4.67A4.45,4.45,0,0,0,62,13.07,3.3,3.3,0,0,0,64.58,12v.83h2.64V4Zm-2.09,6.58A2,2,0,0,1,60.4,8.39a2.09,2.09,0,1,1,4.18,0A2,2,0,0,1,62.49,10.55Z"/><path class="cls-1" d="M74.85,4V8.8c0,1.26-.67,1.83-1.64,1.83A1.46,1.46,0,0,1,71.68,9V4H69V9.4c0,2.39,1.52,3.67,3.29,3.67A3,3,0,0,0,74.85,12v.83h2.64V4Z"/><path class="cls-1" d="M82.07,5.54V4H79.43v8.85h2.64v-4a2.09,2.09,0,0,1,2.64-2v-3A2.65,2.65,0,0,0,82.07,5.54Z"/><path class="cls-1" d="M94.39,8.39a4.46,4.46,0,0,0-4.47-4.67,4.53,4.53,0,0,0-4.68,4.67,4.56,4.56,0,0,0,4.87,4.68A4.47,4.47,0,0,0,94,11.25L91.84,10a2.29,2.29,0,0,1-1.69.67A2,2,0,0,1,88,9.46h6.24A4.62,4.62,0,0,0,94.39,8.39ZM88,7.48a2,2,0,0,1,3.79,0Z"/><path class="cls-1" d="M101.4,3.72A3,3,0,0,0,98.88,4.8V4H96.24v8.85h2.64V8c0-1.26.67-1.82,1.64-1.82a1.45,1.45,0,0,1,1.53,1.61v5h2.64V7.39C104.69,5,103.18,3.72,101.4,3.72Z"/><path class="cls-1" d="M111.66,6.52V4h-1.81V1.49l-2.64.8V4H105.8V6.52h1.41V9.65c0,2.48,1,3.53,4.45,3.17v-2.4c-1.16.06-1.81,0-1.81-.77V6.52Z"/><path class="cls-1" d="M113.49,4v8.85h2.64V4Zm1.32-4a1.61,1.61,0,0,0-1.58,1.59,1.58,1.58,0,1,0,3.16,0A1.61,1.61,0,0,0,114.81,0Z"/><path class="cls-1" d="M123.22,3.72a3,3,0,0,0-2.51,1.08V4h-2.64v8.85h2.64V8c0-1.26.67-1.82,1.63-1.82a1.46,1.46,0,0,1,1.54,1.61v5h2.64V7.39C126.52,5,125,3.72,123.22,3.72Z"/><path class="cls-1" d="M130.08,8.35a2.23,2.23,0,1,0,2.22,2.23A2.22,2.22,0,0,0,130.08,8.35Zm0,3.49a1.26,1.26,0,1,1,1.26-1.26A1.26,1.26,0,0,1,130.08,11.84Z"/></g></g></svg>