<svg xmlns="http://www.w3.org/2000/svg" viewBox="0 0 53.66 16.13"><defs><style>.cls-1{fill:#fff;}</style></defs><g id="Capa_2" data-name="Capa 2"><g id="Capa_1-2" data-name="Capa 1"><path class="cls-1" d="M4.63,0H0V12.4H4.63a5.9,5.9,0,0,0,5.81-6.2A5.9,5.9,0,0,0,4.63,0Zm0,11.51H.93V.89h3.7c2.9,0,4.89,2.37,4.89,5.31S7.53,11.51,4.63,11.51Z"/><path class="cls-1" d="M12.62,3.54V12.4h.88V3.54ZM13.06,0a.7.7,0,1,0,0,1.4.71.71,0,0,0,.71-.71A.71.71,0,0,0,13.06,0Z"/><path class="cls-1" d="M24.52,8a4.46,4.46,0,1,0-8.91,0,4.46,4.46,0,0,0,4.63,4.62,4.33,4.33,0,0,0,3.84-2l-.77-.46a3.34,3.34,0,0,1-3,1.61,3.59,3.59,0,0,1-3.73-3.31h8C24.5,8.29,24.52,8.15,24.52,8Zm-8-.44A3.56,3.56,0,0,1,20.17,4.2a3.43,3.43,0,0,1,3.44,3.36Z"/><path class="cls-1" d="M34.4,3.54V5.6a4.16,4.16,0,0,0-3.79-2.25A4.55,4.55,0,0,0,26.05,8a4.55,4.55,0,0,0,4.56,4.62,4.16,4.16,0,0,0,3.79-2.25V12a3.16,3.16,0,0,1-3.51,3.31c-1.93,0-2.92-.77-3.38-1.71l-.77.44c.64,1.29,2.1,2.12,4.15,2.12A4.06,4.06,0,0,0,35.28,12V3.54Zm-3.74,8.2A3.71,3.71,0,0,1,26.93,8,3.74,3.74,0,1,1,34.4,8,3.72,3.72,0,0,1,30.66,11.74Z"/><path class="cls-1" d="M42,3.35A4.57,4.57,0,0,0,37.39,8a4.62,4.62,0,1,0,9.24,0A4.57,4.57,0,0,0,42,3.35Zm0,8.39A3.71,3.71,0,0,1,38.29,8a3.72,3.72,0,1,1,7.44,0A3.69,3.69,0,0,1,42,11.74Z"/><path class="cls-1" d="M51.44,7.93a2.23,2.23,0,1,0,2.22,2.22A2.22,2.22,0,0,0,51.44,7.93Zm0,3.49a1.27,1.27,0,1,1,1.26-1.27A1.26,1.26,0,0,1,51.44,11.42Z"/></g></g></svg>