<svg xmlns="http://www.w3.org/2000/svg" viewBox="0 0 83.07 13.07"><defs><style>.cls-1{fill:#fff;}</style></defs><g id="Capa_2" data-name="Capa 2"><g id="Capa_1-2" data-name="Capa 1"><path class="cls-1" d="M2.81,10.1V.43H0v12.4H7.21V10.1Z"/><path class="cls-1" d="M15.35,4v.84a3.26,3.26,0,0,0-2.62-1.09A4.44,4.44,0,0,0,8.53,8.4a4.43,4.43,0,0,0,4.2,4.67A3.28,3.28,0,0,0,15.35,12v.83H18V4Zm-2.09,6.59A2,2,0,0,1,11.17,8.4a2,2,0,0,1,2.09-2.16A2,2,0,0,1,15.35,8.4,2,2,0,0,1,13.26,10.56Z"/><path class="cls-1" d="M25.62,4V8.81c0,1.26-.67,1.82-1.64,1.82A1.46,1.46,0,0,1,22.45,9V4H19.81V9.41c0,2.39,1.52,3.66,3.29,3.66A3,3,0,0,0,25.62,12v.83h2.64V4Z"/><path class="cls-1" d="M32.84,5.55V4H30.2v8.86h2.64v-4a2.08,2.08,0,0,1,2.64-2v-3A2.64,2.64,0,0,0,32.84,5.55Z"/><path class="cls-1" d="M45.16,8.4a4.46,4.46,0,0,0-4.47-4.68A4.53,4.53,0,0,0,36,8.4a4.55,4.55,0,0,0,4.87,4.67,4.44,4.44,0,0,0,3.84-1.82L42.61,10a2.29,2.29,0,0,1-1.69.67,2,2,0,0,1-2.11-1.24h6.24A4.54,4.54,0,0,0,45.16,8.4Zm-6.41-.92a1.83,1.83,0,0,1,1.92-1.4,1.81,1.81,0,0,1,1.87,1.4Z"/><path class="cls-1" d="M52.17,3.72a3,3,0,0,0-2.51,1.09V4H47v8.86h2.64V8c0-1.26.66-1.82,1.63-1.82a1.45,1.45,0,0,1,1.53,1.61v5.05h2.64V7.39C55.46,5,54,3.72,52.17,3.72Z"/><path class="cls-1" d="M62.44,6.52V4H60.62V1.49L58,2.29V4H56.57V6.52H58V9.66c0,2.48,1,3.52,4.46,3.17V10.42c-1.17.07-1.82,0-1.82-.76V6.52Z"/><path class="cls-1" d="M64.26,4v8.86H66.9V4Zm1.32-4a1.6,1.6,0,1,0,1.58,1.6A1.61,1.61,0,0,0,65.58,0Z"/><path class="cls-1" d="M74,3.72a3,3,0,0,0-2.51,1.09V4H68.84v8.86h2.64V8c0-1.26.67-1.82,1.64-1.82a1.46,1.46,0,0,1,1.53,1.61v5.05h2.64V7.39C77.29,5,75.77,3.72,74,3.72Z"/><path class="cls-1" d="M80.86,8.36a2.23,2.23,0,1,0,2.21,2.22A2.22,2.22,0,0,0,80.86,8.36Zm0,3.49a1.27,1.27,0,1,1,1.25-1.27A1.26,1.26,0,0,1,80.86,11.85Z"/></g></g></svg>