<svg xmlns="http://www.w3.org/2000/svg" viewBox="0 0 519.1 95.06"><defs><style>.cls-1{fill:#fff;}</style></defs><g id="Capa_2" data-name="Capa 2"><g id="Capa_1-2" data-name="Capa 1"><path class="cls-1" d="M41.51,25.92c0,13.38-9.43,24.26-22.73,24.26H.66V1.66H18.78C32.08,1.66,41.51,12.54,41.51,25.92Zm-3.58,0c0-11.5-7.78-20.79-19.15-20.79H4.31V46.71H18.78C30.15,46.71,37.93,37.43,37.93,25.92Z"/><path class="cls-1" d="M49,4.37a2.76,2.76,0,0,1,5.51,0,2.76,2.76,0,1,1-5.51,0Zm1,11.16h3.45V50.18H50.06Z"/><path class="cls-1" d="M96.63,33c0,.56-.07,1.11-.07,1.66H65.36c.82,7.84,6.75,13,14.6,13,5.65,0,9.92-2.64,11.92-6.31l3,1.8c-2.82,4.71-8.2,7.83-15,7.83-10.6,0-18.11-7.62-18.11-18.09,0-10.19,7.3-18.09,17.84-18.09S96.63,23.5,96.63,33ZM65.36,31.26H93.05c-.76-8.46-6.68-13.17-13.43-13.17C71.76,18.09,66.05,23.56,65.36,31.26Z"/><path class="cls-1" d="M138.72,15.53v33c0,10.39-7.64,16.28-17.15,16.28-8.06,0-13.77-3.25-16.25-8.31l3-1.74c1.79,3.68,5.65,6.73,13.22,6.73,8.61,0,13.71-5.06,13.71-13V42.14a16.3,16.3,0,0,1-14.81,8.8,17.8,17.8,0,0,1-17.84-18.09,17.8,17.8,0,0,1,17.84-18.09,16.31,16.31,0,0,1,14.81,8.8v-8Zm-3.44,17.32a14.61,14.61,0,1,0-29.21,0,14.61,14.61,0,1,0,29.21,0Z"/><path class="cls-1" d="M147,32.85a18.08,18.08,0,1,1,36.16,0,18.08,18.08,0,1,1-36.16,0Zm32.65,0a14.57,14.57,0,1,0-29.14,0,14.57,14.57,0,1,0,29.14,0Z"/><path class="cls-1" d="M221.56,39.51V50.18H193.32V1.66h11V39.51Z"/><path class="cls-1" d="M263.76,15.53V50.18H253.43V46.92c-2.28,2.64-5.65,4.23-10.27,4.23-9,0-16.46-8-16.46-18.3s7.44-18.3,16.46-18.3c4.62,0,8,1.6,10.27,4.23V15.53ZM253.43,32.85c0-5.2-3.45-8.45-8.2-8.45s-8.2,3.25-8.2,8.45,3.45,8.46,8.2,8.46S253.43,38.05,253.43,32.85Z"/><path class="cls-1" d="M303.93,15.53V50.18H293.6V46.92c-1.86,2.57-5.31,4.23-9.86,4.23-6.95,0-12.88-5-12.88-14.35V15.53H281.2V35.28c0,4.3,2.68,6.31,6,6.31,3.79,0,6.41-2.22,6.41-7.14V15.53Z"/><path class="cls-1" d="M332.18,14.83V26.61c-4.27-.69-10.34,1-10.34,7.91V50.18H311.51V15.53h10.33v6.16C323.22,17.05,327.84,14.83,332.18,14.83Z"/><path class="cls-1" d="M353.47,41.86a9,9,0,0,0,6.61-2.63L368.35,44c-3.38,4.71-8.48,7.14-15,7.14-11.78,0-19.08-8-19.08-18.3s7.44-18.3,18.32-18.3c10.06,0,17.5,7.84,17.5,18.3a20,20,0,0,1-.42,4.16H345.2C346.51,40.61,349.68,41.86,353.47,41.86Zm6.33-12.61a7.1,7.1,0,0,0-7.3-5.48c-3.92,0-6.54,1.94-7.5,5.48Z"/><path class="cls-1" d="M410.39,28.9V50.18H400.06V30.43c0-4.3-2.69-6.31-6-6.31-3.79,0-6.41,2.22-6.41,7.14V50.18H377.33V15.53h10.33v3.25c1.86-2.56,5.3-4.23,9.85-4.23C404.47,14.55,410.39,19.54,410.39,28.9Z"/><path class="cls-1" d="M430.58,25.5V37.77c0,3,2.55,3.26,7.1,3v9.43c-13.51,1.39-17.43-2.7-17.43-12.41V25.5h-5.51v-10h5.51V8.94l10.33-3.12v9.71h7.1v10Z"/><path class="cls-1" d="M443.78,6.24a6.2,6.2,0,1,1,12.4,0,6.2,6.2,0,1,1-12.4,0Zm1,9.29h10.33V50.18H444.82Z"/><path class="cls-1" d="M495.79,28.9V50.18H485.46V30.43c0-4.3-2.68-6.31-6-6.31-3.79,0-6.41,2.22-6.41,7.14V50.18H462.73V15.53h10.33v3.25c1.86-2.56,5.31-4.23,9.86-4.23C489.87,14.55,495.79,19.54,495.79,28.9Z"/><path class="cls-1" d="M509.77,50.13a8.73,8.73,0,1,1,8.67-8.73A8.71,8.71,0,0,1,509.77,50.13Zm0-13.66a4.94,4.94,0,1,0,4.9,4.93A4.92,4.92,0,0,0,509.77,36.47Z"/><path class="cls-1" d="M168.47,76.28a5.27,5.27,0,0,1,2,2.58V75.44h1.1V89a6.22,6.22,0,0,1-.8,3.19,5.54,5.54,0,0,1-2.16,2.11,6.18,6.18,0,0,1-3,.74,6.71,6.71,0,0,1-4.1-1.19,5.49,5.49,0,0,1-2.14-3.2h1.09a4.67,4.67,0,0,0,1.82,2.51,5.69,5.69,0,0,0,3.33.94,5.05,5.05,0,0,0,2.49-.62,4.41,4.41,0,0,0,1.76-1.77A5.46,5.46,0,0,0,170.5,89V85.17a5.35,5.35,0,0,1-2.05,2.6,5.93,5.93,0,0,1-3.52,1,6.41,6.41,0,0,1-3.29-.83,5.9,5.9,0,0,1-2.26-2.38,8.27,8.27,0,0,1,0-7.14,5.82,5.82,0,0,1,2.26-2.35,6.51,6.51,0,0,1,3.29-.83A6.08,6.08,0,0,1,168.47,76.28ZM169.79,79a5.18,5.18,0,0,0-1.95-2,5.52,5.52,0,0,0-2.77-.71,5.57,5.57,0,0,0-2.81.69,4.75,4.75,0,0,0-1.89,2,7.43,7.43,0,0,0,0,6.21,4.79,4.79,0,0,0,1.9,2,5.52,5.52,0,0,0,2.8.7,5.45,5.45,0,0,0,2.78-.71,5,5,0,0,0,2-2,6.41,6.41,0,0,0,.7-3.07A6.26,6.26,0,0,0,169.79,79Z"/><path class="cls-1" d="M178.39,75.94a5.88,5.88,0,0,1,3.15-.76v1.14h-.37a4.75,4.75,0,0,0-3.22,1.1,4.5,4.5,0,0,0-1.29,3.6v7.59h-1.09V75.44h1.09v2.72A4,4,0,0,1,178.39,75.94Z"/><path class="cls-1" d="M184.19,78.45a5.82,5.82,0,0,1,2.26-2.35,6.51,6.51,0,0,1,3.29-.83,6,6,0,0,1,3.54,1,5.36,5.36,0,0,1,2,2.6V75.44h1.09V88.61h-1.09V85.14a5.33,5.33,0,0,1-2.05,2.63,5.93,5.93,0,0,1-3.52,1,6.41,6.41,0,0,1-3.29-.83,5.9,5.9,0,0,1-2.26-2.38,8.27,8.27,0,0,1,0-7.14ZM194.6,79a5.18,5.18,0,0,0-1.95-2,5.52,5.52,0,0,0-2.77-.71,5.57,5.57,0,0,0-2.81.69,4.75,4.75,0,0,0-1.89,2,7.43,7.43,0,0,0,0,6.21,4.79,4.79,0,0,0,1.9,2,5.87,5.87,0,0,0,5.58,0,5,5,0,0,0,2-2,7,7,0,0,0,0-6.11Z"/><path class="cls-1" d="M203.5,76.29a6.06,6.06,0,0,1,3.55-1,6.54,6.54,0,0,1,3.29.83,5.73,5.73,0,0,1,2.25,2.35,8.27,8.27,0,0,1,0,7.14A5.81,5.81,0,0,1,210.34,88a6.44,6.44,0,0,1-3.29.83,6,6,0,0,1-3.53-1,5.41,5.41,0,0,1-2.05-2.6v9.65h-1.09V75.44h1.09v3.47A5.21,5.21,0,0,1,203.5,76.29Zm8.11,2.62a4.77,4.77,0,0,0-1.9-2,5.68,5.68,0,0,0-2.83-.69,5.45,5.45,0,0,0-2.76.71,5,5,0,0,0-1.94,2,6.93,6.93,0,0,0,0,6.11,5,5,0,0,0,1.94,2,5.35,5.35,0,0,0,2.76.71,5.58,5.58,0,0,0,2.83-.7,4.85,4.85,0,0,0,1.9-2,7.43,7.43,0,0,0,0-6.21Z"/><path class="cls-1" d="M226.48,76.62A5.74,5.74,0,0,1,228,80.9v7.71h-1.06V81a5,5,0,0,0-1.19-3.6,4.26,4.26,0,0,0-3.23-1.25,4.42,4.42,0,0,0-3.4,1.36,5.7,5.7,0,0,0-1.28,4v7.1H216.7v-18h1.09v7.57A4.46,4.46,0,0,1,219.66,76a5.77,5.77,0,0,1,3-.78A5.25,5.25,0,0,1,226.48,76.62Z"/><path class="cls-1" d="M231.71,72.25a.9.9,0,0,1-.26-.69.92.92,0,0,1,.26-.68.93.93,0,0,1,.66-.26.91.91,0,0,1,.65.26.93.93,0,0,1,.27.68.91.91,0,0,1-.92,1A.93.93,0,0,1,231.71,72.25Zm1.19,3.19V88.61h-1.09V75.44Z"/><path class="cls-1" d="M237,78.43a5.73,5.73,0,0,1,2.25-2.35,6.65,6.65,0,0,1,3.31-.81,6.42,6.42,0,0,1,4.06,1.24,5.27,5.27,0,0,1,2,3.32H247.5a4.1,4.1,0,0,0-1.64-2.67,5.84,5.84,0,0,0-5.9-.32,4.75,4.75,0,0,0-1.91,2,7.66,7.66,0,0,0,0,6.44,4.81,4.81,0,0,0,1.91,2,5.8,5.8,0,0,0,5.9-.31,4.1,4.1,0,0,0,1.64-2.67h1.14a5.32,5.32,0,0,1-2,3.32,6.28,6.28,0,0,1-4.05,1.26,6.55,6.55,0,0,1-3.31-.82A5.76,5.76,0,0,1,237,85.62a7.54,7.54,0,0,1-.82-3.61A7.39,7.39,0,0,1,237,78.43Z"/><path class="cls-1" d="M258.94,78.45a5.73,5.73,0,0,1,2.25-2.35,6.51,6.51,0,0,1,3.29-.83,6.07,6.07,0,0,1,3.49,1,5.36,5.36,0,0,1,2.08,2.61V70.66h1.1v18h-1.1V85.12a5.35,5.35,0,0,1-2,2.65,6,6,0,0,1-3.54,1,6.41,6.41,0,0,1-3.29-.83,5.81,5.81,0,0,1-2.25-2.38,8.18,8.18,0,0,1,0-7.14Zm10.4.52a5.18,5.18,0,0,0-1.95-2,5.52,5.52,0,0,0-2.77-.71,5.6,5.6,0,0,0-2.81.69,4.75,4.75,0,0,0-1.89,2,7.43,7.43,0,0,0,0,6.21,4.79,4.79,0,0,0,1.9,2,5.52,5.52,0,0,0,2.8.7,5.45,5.45,0,0,0,2.78-.71,5,5,0,0,0,2-2,6.41,6.41,0,0,0,.7-3.07A6.26,6.26,0,0,0,269.34,79Z"/><path class="cls-1" d="M286.93,82.45H275.56a5.92,5.92,0,0,0,.78,3,4.64,4.64,0,0,0,1.91,1.82,5.57,5.57,0,0,0,2.6.61,5.37,5.37,0,0,0,3.25-1,4.19,4.19,0,0,0,1.65-2.61h1.14a5.33,5.33,0,0,1-2,3.27,6.41,6.41,0,0,1-4,1.24,6.57,6.57,0,0,1-3.3-.82,5.83,5.83,0,0,1-2.28-2.36,8.25,8.25,0,0,1,0-7.19,5.69,5.69,0,0,1,2.26-2.35,6.73,6.73,0,0,1,3.33-.81,6.41,6.41,0,0,1,3.28.81,5.66,5.66,0,0,1,2.13,2.16,6.08,6.08,0,0,1,.72,2.9A10.93,10.93,0,0,1,286.93,82.45Zm-1.66-3.85a4.32,4.32,0,0,0-1.88-1.81,5.78,5.78,0,0,0-5.13,0,4.67,4.67,0,0,0-1.91,1.81,5.77,5.77,0,0,0-.79,3h10.33A5.37,5.37,0,0,0,285.27,78.6Z"/><path class="cls-1" d="M291.07,87.83a3.61,3.61,0,0,1-1.57-2.76h1.12a2.69,2.69,0,0,0,1.18,2,4.86,4.86,0,0,0,2.87.75,3.53,3.53,0,0,0,2.39-.76,2.39,2.39,0,0,0,.88-1.88,1.76,1.76,0,0,0-.47-1.28,3.16,3.16,0,0,0-1.17-.76,19,19,0,0,0-1.92-.58,18.53,18.53,0,0,1-2.35-.77,3.87,3.87,0,0,1-1.53-1.13,3,3,0,0,1-.63-2,2.87,2.87,0,0,1,.56-1.71A3.82,3.82,0,0,1,292,75.73a5.38,5.38,0,0,1,2.25-.46,5.18,5.18,0,0,1,3.34,1,3.76,3.76,0,0,1,1.37,2.85h-1.09a2.93,2.93,0,0,0-1-2.13,3.85,3.85,0,0,0-2.62-.83,3.68,3.68,0,0,0-2.33.73,2.21,2.21,0,0,0-.92,1.77,2.1,2.1,0,0,0,.52,1.49,3.57,3.57,0,0,0,1.29.88,20.8,20.8,0,0,0,2,.64,17.88,17.88,0,0,1,2.22.71,3.94,3.94,0,0,1,1.42,1,2.62,2.62,0,0,1,.58,1.79,3.17,3.17,0,0,1-.56,1.84,3.64,3.64,0,0,1-1.55,1.28,5.17,5.17,0,0,1-2.23.46A6.15,6.15,0,0,1,291.07,87.83Z"/><path class="cls-1" d="M302.24,72.25a.9.9,0,0,1-.27-.69.93.93,0,0,1,.27-.68.89.89,0,0,1,.65-.26.93.93,0,0,1,.66.26,1,1,0,0,1,.26.68.89.89,0,0,1-.92,1A.89.89,0,0,1,302.24,72.25Zm1.18,3.19V88.61h-1.09V75.44Z"/><path class="cls-1" d="M316.64,76.28a5.35,5.35,0,0,1,2,2.58V75.44h1.09V89a6.22,6.22,0,0,1-.8,3.19,5.41,5.41,0,0,1-2.16,2.11,6.13,6.13,0,0,1-3,.74,6.71,6.71,0,0,1-4.1-1.19,5.52,5.52,0,0,1-2.13-3.2h1.09a4.62,4.62,0,0,0,1.82,2.51,5.66,5.66,0,0,0,3.32.94,5.12,5.12,0,0,0,2.5-.62A4.47,4.47,0,0,0,318,91.73a5.57,5.57,0,0,0,.64-2.71V85.17a5.41,5.41,0,0,1-2.05,2.6,6,6,0,0,1-3.53,1,6.44,6.44,0,0,1-3.29-.83,5.81,5.81,0,0,1-2.25-2.38,8.27,8.27,0,0,1,0-7.14,5.73,5.73,0,0,1,2.25-2.35,6.54,6.54,0,0,1,3.29-.83A6.08,6.08,0,0,1,316.64,76.28ZM318,79a5,5,0,0,0-1.95-2,5.45,5.45,0,0,0-2.76-.71,5.61,5.61,0,0,0-2.82.69,4.75,4.75,0,0,0-1.89,2,7.43,7.43,0,0,0,0,6.21,4.81,4.81,0,0,0,1.91,2,5.49,5.49,0,0,0,2.8.7,5.42,5.42,0,0,0,2.77-.71,5,5,0,0,0,2-2,6.53,6.53,0,0,0,.7-3.07A6.27,6.27,0,0,0,318,79Z"/><path class="cls-1" d="M333.52,76.62A5.7,5.7,0,0,1,335,80.9v7.71h-1.07V81a5,5,0,0,0-1.19-3.6,4.23,4.23,0,0,0-3.22-1.25,4.44,4.44,0,0,0-3.41,1.36,5.7,5.7,0,0,0-1.27,4v7.1h-1.09V75.44h1.09v2.79A4.43,4.43,0,0,1,326.69,76a5.73,5.73,0,0,1,3-.78A5.26,5.26,0,0,1,333.52,76.62Z"/><path class="cls-1" d="M350.67,82.45H339.29a5.92,5.92,0,0,0,.78,3A4.64,4.64,0,0,0,342,87.25a5.59,5.59,0,0,0,2.6.61,5.35,5.35,0,0,0,3.25-1,4.19,4.19,0,0,0,1.65-2.61h1.14a5.28,5.28,0,0,1-2,3.27,6.41,6.41,0,0,1-4.05,1.24,6.57,6.57,0,0,1-3.3-.82A5.83,5.83,0,0,1,339,85.62a8.34,8.34,0,0,1,0-7.19,5.72,5.72,0,0,1,2.27-2.35,6.69,6.69,0,0,1,3.32-.81,6.45,6.45,0,0,1,3.29.81A5.7,5.7,0,0,1,350,78.24a6.08,6.08,0,0,1,.72,2.9C350.71,81.72,350.7,82.16,350.67,82.45ZM349,78.6a4.32,4.32,0,0,0-1.88-1.81,5.59,5.59,0,0,0-2.57-.6,5.51,5.51,0,0,0-2.55.6,4.63,4.63,0,0,0-1.92,1.81,5.87,5.87,0,0,0-.79,3h10.33A5.29,5.29,0,0,0,349,78.6Z"/><path class="cls-1" d="M356.83,75.94a5.88,5.88,0,0,1,3.15-.76v1.14h-.37a4.75,4.75,0,0,0-3.22,1.1A4.5,4.5,0,0,0,355.1,81v7.59H354V75.44h1.09v2.72A4,4,0,0,1,356.83,75.94Z"/><rect class="cls-1" y="82.05" width="142.44" height="1.57"/><rect class="cls-1" x="376.66" y="82.05" width="142.44" height="1.57"/></g></g></svg>