<svg xmlns="http://www.w3.org/2000/svg" viewBox="0 0 335.38 42.72"><defs><style>.cls-1{fill:#202023;}</style></defs><g id="Capa_2" data-name="Capa 2"><g id="Capa_1-2" data-name="Capa 1"><path class="cls-1" d="M10.76,33.1H0V1.05H10.76A15.73,15.73,0,0,1,22.3,5.65a15.49,15.49,0,0,1,4.62,11.43A15.46,15.46,0,0,1,22.3,28.5,15.69,15.69,0,0,1,10.76,33.1ZM2.56,3.43V30.72h8.16a13.12,13.12,0,0,0,9.7-3.91,13.24,13.24,0,0,0,3.89-9.73,13.22,13.22,0,0,0-3.89-9.73,13.12,13.12,0,0,0-9.7-3.92Z"/><path class="cls-1" d="M32.23,4.3a1.69,1.69,0,0,1-.5-1.23,1.71,1.71,0,0,1,.5-1.24,1.79,1.79,0,0,1,2.48,0,1.71,1.71,0,0,1,.5,1.24,1.75,1.75,0,0,1-3,1.23Zm2.52,28.8H32.23v-23h2.52Z"/><path class="cls-1" d="M51.79,9.62a11.28,11.28,0,0,1,8.58,3.61,11.88,11.88,0,0,1,3.18,9.07H42.49a9.46,9.46,0,0,0,3,6.41,9.21,9.21,0,0,0,6.59,2.56,9.32,9.32,0,0,0,5.22-1.49,9.15,9.15,0,0,0,3.43-4L63,26.6a11.49,11.49,0,0,1-4.32,5.06A11.88,11.88,0,0,1,52,33.56a11.72,11.72,0,0,1-12-12,11.75,11.75,0,0,1,3.36-8.56A11.3,11.3,0,0,1,51.79,9.62Zm0,2.33a8.9,8.9,0,0,0-6.14,2.29,9.37,9.37,0,0,0-3.07,5.86H61a9.3,9.3,0,0,0-3-5.82A8.88,8.88,0,0,0,51.79,12Z"/><path class="cls-1" d="M89,16.85V10.07h2.52v20.7a11.54,11.54,0,0,1-3.45,8.52,12.06,12.06,0,0,1-19.53-3.53l2.33-1a9.31,9.31,0,0,0,3.41,4.07,9.67,9.67,0,0,0,12-1.25A9.35,9.35,0,0,0,89,30.77V26.24a11.13,11.13,0,0,1-4,5.26A11.06,11.06,0,0,1,70.74,30a12,12,0,0,1-3.2-8.52A11.93,11.93,0,0,1,70.74,13a11.11,11.11,0,0,1,14.31-1.45A11.15,11.15,0,0,1,89,16.85ZM79.35,31.09a9.43,9.43,0,0,0,6.92-2.73A9.22,9.22,0,0,0,89,21.52a9.19,9.19,0,0,0-2.74-6.8A9.42,9.42,0,0,0,79.35,12a8.89,8.89,0,0,0-6.59,2.74,9.29,9.29,0,0,0-2.7,6.78,9.33,9.33,0,0,0,2.7,6.82A8.9,8.9,0,0,0,79.35,31.09Z"/><path class="cls-1" d="M96.8,21.61a12,12,0,1,1,24,0,11.55,11.55,0,0,1-3.46,8.52,12.43,12.43,0,0,1-17.15,0A11.57,11.57,0,0,1,96.8,21.61ZM102,14.77a9.34,9.34,0,0,0-2.73,6.84A9.28,9.28,0,0,0,102,28.43a9.67,9.67,0,0,0,13.51,0,9.31,9.31,0,0,0,2.72-6.82,9.37,9.37,0,0,0-2.72-6.84,9.62,9.62,0,0,0-13.51,0Z"/><path class="cls-1" d="M146.2,33.1H125.69V1.05h5.08V28.57H146.2Z"/><path class="cls-1" d="M159.44,9.25a10.38,10.38,0,0,1,6.86,2.2A7.73,7.73,0,0,1,169,17.77V33.1h-4.81V26.88q-2.15,6.68-8.65,6.68a7.23,7.23,0,0,1-5-1.81,6.06,6.06,0,0,1-2-4.74,5.92,5.92,0,0,1,2.42-5.15,13.11,13.11,0,0,1,6.19-2.13l4.53-.45c1.71-.16,2.56-.92,2.56-2.29a3.26,3.26,0,0,0-1.3-2.71,5.44,5.44,0,0,0-3.41-1,5.9,5.9,0,0,0-3.64,1.1,4.94,4.94,0,0,0-1.9,3.2l-4.77-1.14a8.09,8.09,0,0,1,3.44-5.25A11.76,11.76,0,0,1,159.44,9.25Zm-2.38,20.42a7,7,0,0,0,5-2A6.25,6.25,0,0,0,164.15,23V21.75c-.36.61-1.25,1-2.65,1.14l-4.44.55a5.76,5.76,0,0,0-2.78,1,2.64,2.64,0,0,0-1,2.18,2.7,2.7,0,0,0,1,2.2A4.32,4.32,0,0,0,157.06,29.67Z"/><path class="cls-1" d="M173.9,23.4V9.71h4.81V23.4a5.46,5.46,0,0,0,1.65,4.14,6.35,6.35,0,0,0,8.38,0,5.46,5.46,0,0,0,1.65-4.14V9.71h4.81V23.4a9.62,9.62,0,0,1-3,7.32,11.72,11.72,0,0,1-15.3,0A9.62,9.62,0,0,1,173.9,23.4Z"/><path class="cls-1" d="M205.22,9.71v6.18q1.16-4.17,3.6-5.63a7.2,7.2,0,0,1,5.56-.74V14.1a7.72,7.72,0,0,0-6.48.67,5.67,5.67,0,0,0-2.68,5.1V33.1h-4.8V9.71Z"/><path class="cls-1" d="M227.25,9.25a11.6,11.6,0,0,1,9.16,4A12.09,12.09,0,0,1,239.29,23H219.92a7.54,7.54,0,0,0,2.61,4.6,7.66,7.66,0,0,0,5.09,1.77,7.58,7.58,0,0,0,4.09-1.13,7.65,7.65,0,0,0,2.82-3l4,1.78a12.13,12.13,0,0,1-4.44,4.77,12.38,12.38,0,0,1-6.64,1.78,12.17,12.17,0,0,1-8.84-3.48,11.59,11.59,0,0,1-3.57-8.65A12,12,0,0,1,227.25,9.25Zm0,4.16a7,7,0,0,0-4.6,1.63,7.81,7.81,0,0,0-2.59,4.24h14.38A7.62,7.62,0,0,0,231.9,15,7.05,7.05,0,0,0,227.25,13.41Z"/><path class="cls-1" d="M257.1,9.25A8.37,8.37,0,0,1,263.61,12a10.24,10.24,0,0,1,2.51,7.1v14h-4.8V19.87a6.12,6.12,0,0,0-1.74-4.46,5.81,5.81,0,0,0-4.31-1.77,6.49,6.49,0,0,0-4.71,1.77,5.89,5.89,0,0,0-1.84,4.46V33.1h-4.8V9.71h4.8v6A9.62,9.62,0,0,1,251.91,11,8.17,8.17,0,0,1,257.1,9.25Z"/><path class="cls-1" d="M273.36,14h-5V9.71h5V2.11l4.8-1.52V9.71h6.6V14h-6.6V24.77a4.26,4.26,0,0,0,1,3.11,4.15,4.15,0,0,0,3.06,1h2.57V33.1h-2.57q-4.53,0-6.68-2.1c-1.44-1.41-2.15-3.56-2.15-6.46Z"/><path class="cls-1" d="M289.54,5.08a2.84,2.84,0,0,1-.89-2.1,2.85,2.85,0,0,1,.89-2.11A3,3,0,0,1,291.67,0a2.87,2.87,0,0,1,2.11.87A2.87,2.87,0,0,1,294.65,3a2.86,2.86,0,0,1-.87,2.1,2.87,2.87,0,0,1-2.11.87A3,3,0,0,1,289.54,5.08Zm4.51,28h-4.8V9.71h4.8Z"/><path class="cls-1" d="M312.64,9.25A8.37,8.37,0,0,1,319.15,12a10.19,10.19,0,0,1,2.51,7.1v14h-4.8V19.87a6.08,6.08,0,0,0-1.74-4.46,5.81,5.81,0,0,0-4.31-1.77,6.49,6.49,0,0,0-4.71,1.77,5.89,5.89,0,0,0-1.84,4.46V33.1h-4.8V9.71h4.8v6A9.62,9.62,0,0,1,307.45,11,8.17,8.17,0,0,1,312.64,9.25Z"/><path class="cls-1" d="M331.15,24.75a4.18,4.18,0,1,0,4.23,4.11A4.16,4.16,0,0,0,331.15,24.75Zm.12,7A2.84,2.84,0,1,1,334,28.88,2.83,2.83,0,0,1,331.27,31.76Z"/></g></g></svg>