<svg width="48" height="36" viewBox="0 0 48 36" fill="none" xmlns="http://www.w3.org/2000/svg">
<path d="M11.9127 35.4885H0V0H11.9127C17.0173 0 21.2752 1.69736 24.6866 5.09208C26.3612 6.7373 27.68 8.70895 28.5613 10.8848C29.4426 13.0606 29.8675 15.3943 29.8099 17.7412C29.8683 20.0881 29.4436 22.422 28.5623 24.5979C27.681 26.7739 26.3618 28.7454 24.6866 30.3902C21.2752 33.7933 17.0173 35.4927 11.9127 35.4885ZM2.83933 2.6334V32.8489H11.8566C13.85 32.9037 15.8334 32.5474 17.6832 31.8023C19.533 31.0573 21.2096 29.9393 22.6086 28.5181C24.0217 27.1089 25.1329 25.4265 25.8742 23.5736C26.6156 21.7207 26.9716 19.7362 26.9206 17.7412C26.9711 15.7471 26.6149 13.7636 25.8735 11.9118C25.1321 10.06 24.0212 8.37869 22.6086 6.97041C21.2099 5.54839 19.5335 4.42949 17.6838 3.68335C15.834 2.93722 13.8504 2.57982 11.8566 2.6334H2.83933Z" fill="#F4F4F4"/>
<path d="M41.3106 23.4075C40.063 23.3963 38.8401 23.7561 37.7973 24.4412C36.7545 25.1263 35.9388 26.1057 35.4536 27.2552C34.9684 28.4047 34.8357 29.6725 35.0722 30.8975C35.3088 32.1226 35.904 33.2498 36.7823 34.136C37.6606 35.0222 38.7824 35.6274 40.0053 35.875C41.2282 36.1225 42.4971 36.0011 43.6509 35.5263C44.8047 35.0514 45.7914 34.2445 46.4858 33.2078C47.1801 32.1712 47.5509 30.9516 47.5509 29.7039C47.5543 28.0427 46.8997 26.4477 45.7303 25.2678C44.5609 24.0879 42.9718 23.419 41.3106 23.4075ZM41.3106 33.2671C40.6051 33.2708 39.9144 33.065 39.3259 32.6758C38.7375 32.2865 38.2779 31.7313 38.0053 31.0805C37.7328 30.4298 37.6595 29.7128 37.7949 29.0203C37.9303 28.3279 38.2681 27.6913 38.7657 27.1911C39.2633 26.6909 39.8981 26.3496 40.5898 26.2106C41.2815 26.0716 41.9989 26.1411 42.6511 26.4102C43.3033 26.6793 43.8609 27.136 44.2533 27.7224C44.6456 28.3088 44.8551 28.9984 44.8551 29.7039C44.8568 30.1707 44.7663 30.6333 44.589 31.0651C44.4117 31.497 44.151 31.8896 43.8218 32.2205C43.4925 32.5515 43.1013 32.8143 42.6704 32.9939C42.2395 33.1735 41.7774 33.2663 41.3106 33.2671Z" fill="#F4F4F4"/>
</svg>
