<svg xmlns="http://www.w3.org/2000/svg" viewBox="0 0 607.84 77.18"><defs><style>.cls-1{fill:#171718;}</style></defs><g id="Capa_2" data-name="Capa 2"><g id="Capa_1-2" data-name="Capa 1"><path d="M19.09,60.12H0V3.25H19.09q12.27,0,20.47,8.17a27.44,27.44,0,0,1,8.21,20.26A27.45,27.45,0,0,1,39.56,52Q31.36,60.13,19.09,60.12ZM4.55,7.47V55.89H19A23.28,23.28,0,0,0,36.23,49a23.54,23.54,0,0,0,6.91-17.27,23.53,23.53,0,0,0-6.91-17.26A23.29,23.29,0,0,0,19,7.47Z"/><path d="M57.19,9a3,3,0,0,1-.89-2.2,3.09,3.09,0,1,1,6.17,0A3.1,3.1,0,0,1,57.19,9Zm4.47,51.1H57.19V19.25h4.47Z"/><path d="M91.88,18.44a20,20,0,0,1,15.23,6.42q6.06,6.42,5.65,16.09H75.39a16.72,16.72,0,0,0,5.28,11.37,16.36,16.36,0,0,0,11.7,4.55,16.63,16.63,0,0,0,9.26-2.64,16.34,16.34,0,0,0,6.09-7.11l4.06,1.46a20.59,20.59,0,0,1-7.67,9,21.1,21.1,0,0,1-11.82,3.37A20.81,20.81,0,0,1,71,39.73a20.87,20.87,0,0,1,6-15.2A20,20,0,0,1,91.88,18.44Zm0,4.15A15.76,15.76,0,0,0,81,26.65a16.56,16.56,0,0,0-5.45,10.4h32.66a16.42,16.42,0,0,0-5.36-10.32A15.74,15.74,0,0,0,91.88,22.59Z"/><path d="M157.93,31.28v-12h4.46V56a20.42,20.42,0,0,1-6.13,15.11A20.73,20.73,0,0,1,141,77.18a21,21,0,0,1-11.78-3.37,20.72,20.72,0,0,1-7.64-9l4.15-1.71a16.54,16.54,0,0,0,6,7.23,17.18,17.18,0,0,0,21.24-2.23A16.59,16.59,0,0,0,157.93,56v-8a19.83,19.83,0,0,1-7,9.34,19.6,19.6,0,0,1-25.39-2.6,21.28,21.28,0,0,1-5.68-15.11,21.13,21.13,0,0,1,5.68-15.06,19.65,19.65,0,0,1,25.39-2.56A19.88,19.88,0,0,1,157.93,31.28ZM140.79,56.54a16.71,16.71,0,0,0,12.26-4.83,16.4,16.4,0,0,0,4.88-12.15,16.31,16.31,0,0,0-4.88-12.06,16.71,16.71,0,0,0-12.26-4.83,15.76,15.76,0,0,0-11.7,4.87,16.47,16.47,0,0,0-4.8,12,16.56,16.56,0,0,0,4.8,12.11A15.76,15.76,0,0,0,140.79,56.54Z"/><path d="M171.74,39.73a21.33,21.33,0,1,1,42.65,0,20.48,20.48,0,0,1-6.13,15.11,22.05,22.05,0,0,1-30.43,0A20.52,20.52,0,0,1,171.74,39.73ZM181,27.58a16.67,16.67,0,0,0-4.83,12.15A16.5,16.5,0,0,0,181,51.83a17.16,17.16,0,0,0,24,0,16.5,16.5,0,0,0,4.83-12.1A16.67,16.67,0,0,0,205,27.58a17.08,17.08,0,0,0-24,0Z"/><path d="M260.45,60.12H222.59V3.25h11.62V49.8h26.24Z"/><path d="M284,17.38q8,0,12.92,4.15t4.95,12.1V60.12h-11V49.72q-3.5,11.2-14.46,11.21a12.58,12.58,0,0,1-8.77-3.33A11.2,11.2,0,0,1,264,48.91q0-11.77,16.17-13.49l6.83-.65q3.89-.24,3.89-3.33A4.31,4.31,0,0,0,289,27.78a9.36,9.36,0,0,0-10.23.29,7.57,7.57,0,0,0-2.64,4.67L265.24,30.3A13.9,13.9,0,0,1,271.17,21Q276.21,17.38,284,17.38Zm-3.66,34.86a10.54,10.54,0,0,0,7.44-2.93,9,9,0,0,0,3.12-6.74v-1a6.92,6.92,0,0,1-3.73,1.21l-7.07.81a7.13,7.13,0,0,0-3.74,1.51,3.89,3.89,0,0,0,.08,6A6,6,0,0,0,280.35,52.24Z"/><path d="M309.84,42.41V18.2h11V42.41a8.18,8.18,0,0,0,2.44,6.17,9.47,9.47,0,0,0,12.51,0,8.22,8.22,0,0,0,2.44-6.17V18.2h11V42.41a17.45,17.45,0,0,1-5.52,13.36q-5.52,5.16-14.14,5.16t-14.13-5.16A17.43,17.43,0,0,1,309.84,42.41Z"/><path d="M368.58,18.2V29.09q2-7.65,6.29-10.16a11.07,11.07,0,0,1,9.39-.89v10.4q-6.58-2.28-11.13.2a8.42,8.42,0,0,0-4.55,8V60.12h-11V18.2Z"/><path d="M407.49,17.38q10.56,0,16.94,7.6t4.67,18.08H396.77a11.55,11.55,0,0,0,11.45,8.45q7.15,0,10.4-5.85l9,4.06a21.46,21.46,0,0,1-8,8.16,22.65,22.65,0,0,1-11.74,3,22,22,0,0,1-16-6.26,20.77,20.77,0,0,1-6.42-15.51,20.94,20.94,0,0,1,6.33-15.52A21.45,21.45,0,0,1,407.49,17.38Zm0,9.43A10.71,10.71,0,0,0,401,29a11.24,11.24,0,0,0-4,5.73h21.2a11.23,11.23,0,0,0-4-5.73A10.73,10.73,0,0,0,407.49,26.81Z"/><path d="M462.08,17.38a14.25,14.25,0,0,1,11.26,4.88q4.26,4.88,4.26,12.43V60.12h-11V36.64A9,9,0,0,0,464,30a8.83,8.83,0,0,0-6.5-2.6,10,10,0,0,0-7.14,2.6,8.71,8.71,0,0,0-2.77,6.66V60.12h-11V18.2h11V28.92a16.71,16.71,0,0,1,5.49-8.45A13.92,13.92,0,0,1,462.08,17.38Z"/><path d="M489.22,27.87h-8.45V18.2h8.45V5.85l11-3.41V18.2h10.88v9.67H500.19V44.52c0,4,2,5.93,5.93,5.93h4.95v9.67h-4.95q-8.62,0-12.76-4t-4.14-12.23Z"/><path d="M517.08,6.58A6.28,6.28,0,0,1,519,1.91,6.5,6.5,0,0,1,523.74,0a6.4,6.4,0,0,1,4.63,1.91,6.28,6.28,0,0,1,2,4.67,6.32,6.32,0,0,1-2,4.63,6.32,6.32,0,0,1-4.63,1.95A6.42,6.42,0,0,1,519,11.21,6.32,6.32,0,0,1,517.08,6.58Zm12.11,53.54h-11V18.2h11Z"/><path d="M563.39,17.38a14.24,14.24,0,0,1,11.25,4.88q4.26,4.88,4.26,12.43V60.12h-11V36.64a9,9,0,0,0-2.6-6.66,8.84,8.84,0,0,0-6.5-2.6,10,10,0,0,0-7.15,2.6,8.73,8.73,0,0,0-2.76,6.66V60.12H538V18.2h11V28.92a16.69,16.69,0,0,1,5.48-8.45A14,14,0,0,1,563.39,17.38Z"/><path class="cls-1" d="M597.8,39.94a10.09,10.09,0,1,0,10,10.09A10.07,10.07,0,0,0,597.8,39.94Zm0,15.8A5.71,5.71,0,1,1,603.48,50,5.68,5.68,0,0,1,597.8,55.74Z"/></g></g></svg>