<svg width="182" height="23" viewBox="0 0 182 23" fill="none" xmlns="http://www.w3.org/2000/svg">
<path d="M5.68822 17.9144H0V0.968933H5.68822C8.1256 0.968933 10.1587 1.7804 11.7876 3.40334C12.5873 4.18825 13.2171 5.12915 13.6379 6.16763C14.0587 7.20611 14.2616 8.32001 14.234 9.44018C14.2639 10.5633 14.0621 11.6806 13.6413 12.7223C13.2204 13.764 12.5894 14.7078 11.7876 15.4949C10.1587 17.1099 8.1256 17.9164 5.68822 17.9144ZM1.35576 2.22636V16.654H5.6614C6.61219 16.6821 7.55859 16.5143 8.44179 16.1611C9.325 15.808 10.1261 15.2769 10.7954 14.601C11.4701 13.9281 12.0007 13.1248 12.3547 12.24C12.7087 11.3553 12.8787 10.4077 12.8544 9.45508C12.8785 8.50293 12.7084 7.55585 12.3544 6.67163C12.0004 5.78741 11.4699 4.98458 10.7954 4.31214C10.1288 3.63045 9.32893 3.09342 8.44562 2.73456C7.56231 2.3757 6.61453 2.2027 5.6614 2.22636H1.35576Z" fill="#F4F4F4"/>
<path d="M17.0416 2.6822C16.9551 2.59671 16.887 2.49449 16.8414 2.38177C16.7958 2.26906 16.7737 2.14823 16.7764 2.02667C16.7693 1.90155 16.7878 1.7763 16.8307 1.65857C16.8737 1.54085 16.9403 1.43314 17.0263 1.34204C17.1124 1.25094 17.2161 1.17837 17.3312 1.12877C17.4463 1.07917 17.5703 1.05359 17.6956 1.05359C17.8209 1.05359 17.9449 1.07917 18.06 1.12877C18.1751 1.17837 18.2789 1.25094 18.3649 1.34204C18.451 1.43314 18.5175 1.54085 18.5605 1.65857C18.6035 1.7763 18.622 1.90155 18.6149 2.02667C18.6146 2.20883 18.5605 2.38685 18.4594 2.53835C18.3583 2.68985 18.2146 2.80807 18.0464 2.87813C17.8783 2.94819 17.6932 2.96697 17.5144 2.93211C17.3356 2.89725 17.1711 2.8103 17.0416 2.6822V2.6822ZM18.3735 17.9084H17.0416V5.73638H18.3735V17.9084Z" fill="#F4F4F4"/>
<path d="M27.378 5.49479C28.2271 5.47184 29.0712 5.63065 29.8539 5.96057C30.6366 6.29049 31.3397 6.78391 31.9161 7.40775C33.1199 8.68305 33.6811 10.2812 33.5996 12.2021H22.4645C22.5297 13.4927 23.0938 14.7074 24.0378 15.59C24.501 16.0344 25.0474 16.3829 25.6457 16.6155C26.244 16.8482 26.8823 16.9604 27.524 16.9457C28.5012 16.9613 29.4612 16.6877 30.2832 16.1591C31.0818 15.645 31.7125 14.9086 32.0979 14.0405L33.3076 14.4756C32.8244 15.5737 32.0298 16.5061 31.0222 17.1573C29.9739 17.8341 28.7478 18.1836 27.5002 18.1614C26.6636 18.1809 25.8317 18.0308 25.0546 17.7202C24.2775 17.4096 23.5713 16.9449 22.9786 16.3542C22.3859 15.7634 21.9189 15.0588 21.6057 14.2827C21.2926 13.5066 21.1397 12.6752 21.1564 11.8385C21.1344 11.0022 21.2814 10.17 21.5886 9.39172C21.8958 8.61349 22.3569 7.90526 22.9443 7.30942C23.5175 6.71665 24.2076 6.2493 24.9708 5.93695C25.734 5.6246 26.5537 5.47404 27.378 5.49479ZM27.378 6.73136C26.1828 6.70726 25.0234 7.13991 24.1361 7.94111C23.2345 8.74106 22.6569 9.84336 22.5122 11.04H32.2439C32.1044 9.85446 31.5364 8.76081 30.6467 7.96495C29.7567 7.14813 28.5858 6.70624 27.378 6.73136V6.73136Z" fill="#F4F4F4"/>
<path d="M47.0574 9.32076V5.74514H48.3864V16.6865C48.4075 17.5222 48.2563 18.3533 47.942 19.1279C47.6278 19.9026 47.1572 20.6041 46.5598 21.1888C45.9651 21.7841 45.255 22.2517 44.4731 22.5627C43.6912 22.8737 42.854 23.0217 42.0128 22.9975C40.769 23.0192 39.547 22.6696 38.5028 21.9934C37.5 21.3391 36.709 20.4074 36.2263 19.3116L37.4629 18.8021C37.838 19.6779 38.459 20.4262 39.2507 20.9564C40.2258 21.5761 41.3818 21.8477 42.5309 21.7271C43.6799 21.6065 44.7544 21.1007 45.5795 20.292C46.0573 19.8225 46.4347 19.2608 46.6887 18.641C46.9428 18.0212 47.0682 17.3563 47.0574 16.6865V14.3028C46.6571 15.4187 45.9304 16.3884 44.9717 17.0858C43.8259 17.8815 42.4332 18.2407 41.0456 18.0986C39.6579 17.9565 38.367 17.3224 37.4062 16.3111C36.2727 15.0909 35.6647 13.4736 35.7138 11.8088C35.6638 10.1483 36.2722 8.53533 37.4062 7.32139C38.3701 6.31458 39.6615 5.68463 41.0483 5.54481C42.4351 5.40498 43.8262 5.76445 44.9717 6.55859C45.9264 7.25113 46.6527 8.21292 47.0574 9.32076ZM41.9503 16.8474C42.6249 16.8677 43.2967 16.7506 43.9247 16.5031C44.5527 16.2557 45.1238 15.8832 45.6034 15.4083C46.0814 14.937 46.4572 14.3724 46.7074 13.7495C46.9575 13.1266 47.0767 12.4589 47.0574 11.7879C47.0746 11.1212 46.9544 10.4582 46.7042 9.83993C46.4541 9.22171 46.0793 8.66159 45.6034 8.19444C45.1238 7.71947 44.5527 7.34696 43.9247 7.09955C43.2967 6.85214 42.6249 6.73501 41.9503 6.75525C41.3004 6.74268 40.655 6.86516 40.0549 7.11495C39.4548 7.36473 38.9131 7.73638 38.464 8.20636C37.9969 8.67512 37.6293 9.23354 37.3835 9.84802C37.1377 10.4625 37.0188 11.1203 37.0338 11.782C37.0159 12.4489 37.1334 13.1125 37.3792 13.7327C37.625 14.3529 37.9941 14.9168 38.464 15.3904C38.9125 15.8614 39.454 16.2342 40.0541 16.485C40.6543 16.7358 41.2999 16.8593 41.9503 16.8474V16.8474Z" fill="#F4F4F4"/>
<path d="M51.1733 11.8385C51.155 10.9925 51.3058 10.1513 51.6169 9.36435C51.928 8.57739 52.3931 7.86048 52.985 7.25567C53.5768 6.65085 54.2835 6.17032 55.0635 5.84226C55.8436 5.5142 56.6813 5.34521 57.5275 5.34521C58.3737 5.34521 59.2114 5.5142 59.9914 5.84226C60.7715 6.17032 61.4782 6.65085 62.07 7.25567C62.6619 7.86048 63.127 8.57739 63.4381 9.36435C63.7492 10.1513 63.9 10.9925 63.8817 11.8385C63.9018 12.674 63.75 13.5048 63.4358 14.2793C63.1216 15.0537 62.6517 15.7554 62.0551 16.3408C60.8332 17.5057 59.2098 18.1556 57.5215 18.1556C55.8333 18.1556 54.2099 17.5057 52.9879 16.3408C52.3941 15.754 51.9268 15.0518 51.6147 14.2774C51.3026 13.5031 51.1524 12.6731 51.1733 11.8385V11.8385ZM53.9325 8.21817C53.461 8.69349 53.0905 9.25921 52.8431 9.88135C52.5958 10.5035 52.4768 11.1692 52.4933 11.8385C52.4759 12.5057 52.5946 13.1694 52.842 13.7893C53.0894 14.4091 53.4604 14.9721 53.9325 15.4439C54.888 16.3786 56.1715 16.902 57.5081 16.902C58.8448 16.902 60.1283 16.3786 61.0837 15.4439C61.5558 14.9721 61.9268 14.4091 62.1743 13.7893C62.4217 13.1694 62.5403 12.5057 62.5229 11.8385C62.5394 11.1692 62.4204 10.5035 62.1731 9.88135C61.9258 9.25921 61.5552 8.69349 61.0837 8.21817C60.1312 7.27777 58.8466 6.75046 57.5081 6.75046C56.1696 6.75046 54.885 7.27777 53.9325 8.21817V8.21817Z" fill="#F4F4F4"/>
<path d="M77.6053 17.9144H66.3242V0.968933H69.7866V14.8394H77.6053V17.9144Z" fill="#F4F4F4"/>
<path d="M84.6233 5.17938C86.2125 5.17938 87.4958 5.59157 88.4731 6.41595C89.4504 7.24033 89.9421 8.44214 89.948 10.0214V17.9146H86.6704V14.8157C85.9751 17.0405 84.5389 18.1539 82.3618 18.1559C81.3953 18.1745 80.4591 17.819 79.7486 17.1637C79.3906 16.8368 79.1081 16.4358 78.9207 15.9886C78.7334 15.5414 78.6458 15.0588 78.664 14.5743C78.664 12.2363 80.27 10.8964 83.4821 10.5547L85.5172 10.3611C86.29 10.3134 86.6763 9.98263 86.6763 9.36882C86.681 9.15448 86.6318 8.94239 86.5335 8.7519C86.4351 8.56141 86.2906 8.39858 86.1132 8.27825C85.6515 7.99518 85.1175 7.85262 84.5762 7.86797C84.0349 7.88331 83.5098 8.0559 83.065 8.36467C82.6417 8.71693 82.3619 9.21187 82.2783 9.75618L79.0334 9.02914C79.1233 8.47111 79.3264 7.93739 79.6303 7.46082C79.9342 6.98425 80.3324 6.57492 80.8004 6.25803C81.8016 5.53893 83.0759 5.17938 84.6233 5.17938ZM83.5328 15.5666C84.3577 15.578 85.154 15.2644 85.7497 14.6935C86.0386 14.4442 86.271 14.1361 86.4313 13.7897C86.5916 13.4434 86.6762 13.0668 86.6793 12.6852V12.3872C86.3514 12.6121 85.9654 12.7373 85.5679 12.7478L83.4613 12.9891C83.0542 13.0287 82.6673 13.185 82.3468 13.4391C82.2165 13.5496 82.1123 13.6875 82.0415 13.843C81.9707 13.9985 81.9352 14.1678 81.9375 14.3386C81.9398 14.5094 81.9798 14.6777 82.0547 14.8312C82.1296 14.9848 82.2375 15.1199 82.3707 15.2269C82.7076 15.4725 83.1197 15.5926 83.5357 15.5666H83.5328Z" fill="#F4F4F4"/>
<path d="M92.3229 12.6375V5.42365H95.6006V12.6375C95.5866 12.9777 95.6441 13.3171 95.7693 13.6337C95.8945 13.9504 96.0847 14.2373 96.3276 14.4759C96.8427 14.9291 97.5053 15.1791 98.1914 15.1791C98.8775 15.1791 99.5401 14.9291 100.055 14.4759C100.297 14.2368 100.487 13.9499 100.612 13.6333C100.738 13.3168 100.795 12.9776 100.782 12.6375V5.42365H104.06V12.6375C104.086 13.38 103.953 14.1195 103.669 14.8062C103.385 15.4929 102.958 16.1108 102.415 16.6183C101.319 17.6433 99.9142 18.1558 98.2018 18.1558C96.4895 18.1558 95.0861 17.6433 93.9915 16.6183C93.4442 16.1132 93.012 15.4963 92.7241 14.8095C92.4362 14.1226 92.2994 13.3819 92.3229 12.6375V12.6375Z" fill="#F4F4F4"/>
<path d="M109.825 5.42342V8.6683C110.222 7.14866 110.847 6.13954 111.699 5.64094C112.117 5.39341 112.584 5.24129 113.068 5.19544C113.552 5.1496 114.04 5.21117 114.497 5.37575V8.47462C113.19 8.02171 112.084 8.04157 111.18 8.53421C110.747 8.75711 110.389 9.10119 110.148 9.52446C109.907 9.94774 109.795 10.4319 109.825 10.918V17.9143H106.547V5.42342H109.825Z" fill="#F4F4F4"/>
<path d="M121.418 5.17905C123.516 5.17905 125.198 5.93391 126.466 7.44361C127.733 8.95332 128.197 10.7491 127.857 12.8309H118.224C118.43 13.5712 118.878 14.2213 119.496 14.6776C120.114 15.1339 120.868 15.3702 121.636 15.3487C123.056 15.3487 124.089 14.7677 124.735 13.6056L127.416 14.8154C126.856 15.8264 126.032 16.6666 125.033 17.2468C123.969 17.8569 122.76 18.1659 121.534 18.1407C120.655 18.1655 119.78 18.0131 118.961 17.6927C118.142 17.3722 117.396 16.8902 116.767 16.2754C116.144 15.6806 115.652 14.9623 115.323 14.1665C114.993 13.3707 114.834 12.5149 114.854 11.6539C114.833 10.7947 114.99 9.9405 115.314 9.14472C115.639 8.34895 116.124 7.6288 116.74 7.02944C117.354 6.42059 118.085 5.94267 118.889 5.62462C119.694 5.30656 120.554 5.15498 121.418 5.17905V5.17905ZM121.418 7.98889C120.72 7.98886 120.04 8.21811 119.484 8.64145C118.916 9.06947 118.498 9.6675 118.292 10.3488H124.609C124.404 9.66741 123.986 9.06933 123.418 8.64145C122.844 8.20468 122.139 7.97471 121.418 7.98889V7.98889Z" fill="#F4F4F4"/>
<path d="M137.686 5.17936C138.318 5.15646 138.948 5.27514 139.528 5.52672C140.109 5.7783 140.626 6.15642 141.041 6.63344C141.887 7.60283 142.311 8.83742 142.311 10.3372V17.9145H139.033V10.9182C139.045 10.5531 138.983 10.1892 138.85 9.84897C138.717 9.50875 138.515 9.19933 138.258 8.93972C138.005 8.68537 137.703 8.48544 137.37 8.35222C137.037 8.21899 136.68 8.15528 136.321 8.165C135.538 8.13325 134.773 8.41161 134.194 8.93972C133.923 9.19235 133.708 9.50019 133.566 9.8425C133.424 10.1848 133.356 10.5536 133.368 10.9242V17.9145H130.091V5.42369H133.368V8.61791C133.642 7.6303 134.213 6.75103 135.004 6.10008C135.762 5.48768 136.712 5.16171 137.686 5.17936V5.17936Z" fill="#F4F4F4"/>
<path d="M145.772 8.305H143.254V5.42365H145.772V1.74373L149.049 0.727661V5.42365H152.291V8.305H149.04V13.2662C149.04 14.4581 149.636 15.0331 150.807 15.0331H152.282V17.9145H150.807C149.095 17.9145 147.828 17.5172 147.005 16.7226C146.183 15.928 145.772 14.7133 145.772 13.0785V8.305Z" fill="#F4F4F4"/>
<path d="M154.075 1.96106C154.069 1.70215 154.116 1.4448 154.215 1.20527C154.313 0.965748 154.46 0.749273 154.647 0.569545C154.832 0.384178 155.052 0.238178 155.295 0.140362C155.537 0.042545 155.798 -0.00505859 156.059 0.000425251C156.316 -0.00233704 156.57 0.0466399 156.807 0.144427C157.044 0.242214 157.259 0.386802 157.439 0.569545C157.63 0.747185 157.781 0.962726 157.884 1.20235C157.986 1.44198 158.038 1.7004 158.035 1.96106C158.035 2.21961 157.983 2.47553 157.88 2.71288C157.778 2.95023 157.628 3.16392 157.439 3.34065C157.261 3.52667 157.047 3.67421 156.809 3.77414C156.572 3.87408 156.317 3.9243 156.059 3.92169C155.797 3.92703 155.536 3.8782 155.293 3.77823C155.05 3.67826 154.83 3.52931 154.647 3.34065C154.462 3.16187 154.317 2.94725 154.218 2.71C154.12 2.47274 154.071 2.21787 154.075 1.96106V1.96106ZM157.683 17.9143H154.405V5.42345H157.683V17.9143Z" fill="#F4F4F4"/>
<path d="M167.873 5.1793C168.505 5.15664 169.134 5.27544 169.714 5.52702C170.294 5.7786 170.81 6.1566 171.225 6.63339C172.071 7.60278 172.495 8.83736 172.495 10.3371V17.9145H169.217V10.9182C169.23 10.552 169.168 10.187 169.035 9.84571C168.902 9.5044 168.7 9.19401 168.442 8.93371C168.189 8.6795 167.887 8.47967 167.554 8.34645C167.221 8.21323 166.864 8.14944 166.505 8.15899C165.721 8.12644 164.955 8.40485 164.375 8.93371C164.104 9.18685 163.891 9.49485 163.749 9.83709C163.607 10.1793 163.54 10.5479 163.552 10.9182V17.9145H160.308V5.42364H163.585V8.61786C163.857 7.63046 164.428 6.75114 165.218 6.10002C165.97 5.49532 166.908 5.16994 167.873 5.1793V5.1793Z" fill="#F4F4F4"/>
<path d="M178.126 11.9012C177.53 11.8959 176.946 12.0677 176.448 12.3948C175.95 12.7219 175.561 13.1896 175.329 13.7384C175.097 14.2873 175.034 14.8927 175.147 15.4776C175.26 16.0626 175.544 16.6008 175.963 17.0239C176.383 17.4471 176.918 17.7361 177.502 17.8543C178.086 17.9725 178.692 17.9145 179.243 17.6878C179.794 17.4611 180.265 17.0757 180.597 16.5808C180.928 16.0858 181.105 15.5035 181.105 14.9077C181.107 14.1145 180.794 13.3529 180.236 12.7895C179.678 12.2261 178.919 11.9067 178.126 11.9012V11.9012ZM178.126 16.6091C177.789 16.6108 177.46 16.5128 177.179 16.3273C176.898 16.1418 176.679 15.8773 176.548 15.567C176.418 15.2568 176.382 14.9149 176.446 14.5845C176.51 14.2542 176.671 13.9502 176.907 13.711C177.144 13.4718 177.446 13.3082 177.776 13.2408C178.106 13.1734 178.448 13.2053 178.76 13.3324C179.071 13.4596 179.338 13.6762 179.526 13.955C179.715 14.2338 179.816 14.5622 179.818 14.8987C179.82 15.1225 179.778 15.3445 179.694 15.5519C179.61 15.7593 179.486 15.948 179.329 16.1071C179.171 16.2661 178.984 16.3924 178.777 16.4786C178.571 16.5647 178.349 16.6091 178.126 16.6091Z" fill="#F4F4F4"/>
</svg>
